<mxfile host="localhost" modified="2020-05-17T20:22:54.042Z" agent="5.0 (Macintosh; Intel Mac OS X 10_15_4) AppleWebKit/537.36 (KHTML, like Gecko) Code/1.45.1 Chrome/78.0.3904.130 Electron/7.2.4 Safari/537.36" etag="Xm4t49NkD5E7ox28-XE4" version="13.0.9">
    <diagram id="6hGFLwfOUW9BJ-s0fimq" name="Page-1">
        <mxGraphModel dx="355" dy="447" grid="1" gridSize="10" guides="1" tooltips="1" connect="1" arrows="1" fold="1" page="1" pageScale="1" pageWidth="827" pageHeight="1169" math="0" shadow="0">
            <root>
                <mxCell id="0"/>
                <mxCell id="1" parent="0"/>
                <mxCell id="2" value="Language Learning App" style="text;html=1;strokeColor=none;fillColor=none;align=center;verticalAlign=middle;whiteSpace=wrap;rounded=0;fontSize=23;" vertex="1" parent="1">
                    <mxGeometry x="50" y="10" width="260" height="20" as="geometry"/>
                </mxCell>
                <mxCell id="3" value="Good try, but not quite right :(" style="text;html=1;strokeColor=none;fillColor=none;align=center;verticalAlign=middle;whiteSpace=wrap;rounded=0;fontSize=15;" vertex="1" parent="1">
                    <mxGeometry x="55" y="80" width="250" height="30" as="geometry"/>
                </mxCell>
                <mxCell id="5" value="Your total Score is: 123" style="text;html=1;strokeColor=none;fillColor=none;align=center;verticalAlign=middle;whiteSpace=wrap;rounded=0;fontSize=15;" vertex="1" parent="1">
                    <mxGeometry x="40" y="190" width="300" height="40" as="geometry"/>
                </mxCell>
                <mxCell id="6" value="" style="rounded=0;whiteSpace=wrap;html=1;fontSize=15;fillColor=#f5f5f5;strokeColor=#666666;fontColor=#333333;" vertex="1" parent="1">
                    <mxGeometry x="55" y="250" width="250" height="50" as="geometry"/>
                </mxCell>
                <mxCell id="7" value="Try another word!!" style="text;html=1;strokeColor=none;fillColor=none;align=center;verticalAlign=middle;whiteSpace=wrap;rounded=0;fontSize=15;labelBackgroundColor=#ffffff;fontColor=#000000;" vertex="1" parent="1">
                    <mxGeometry x="65" y="265" width="230" height="20" as="geometry"/>
                </mxCell>
                <mxCell id="8" value="Language Learning App" style="text;html=1;strokeColor=none;fillColor=none;align=center;verticalAlign=middle;whiteSpace=wrap;rounded=0;fontSize=23;" vertex="1" parent="1">
                    <mxGeometry x="400" y="10" width="260" height="20" as="geometry"/>
                </mxCell>
                <mxCell id="9" value="You were correct :D" style="text;html=1;strokeColor=none;fillColor=none;align=center;verticalAlign=middle;whiteSpace=wrap;rounded=0;fontSize=15;" vertex="1" parent="1">
                    <mxGeometry x="405" y="80" width="250" height="30" as="geometry"/>
                </mxCell>
                <mxCell id="10" value="The correct translation for -word- is -answer- and you chose -guess-" style="text;html=1;strokeColor=none;fillColor=none;align=center;verticalAlign=middle;whiteSpace=wrap;rounded=0;fontSize=15;" vertex="1" parent="1">
                    <mxGeometry x="430" y="130" width="200" height="40" as="geometry"/>
                </mxCell>
                <mxCell id="11" value="Your total Score is: 123" style="text;html=1;strokeColor=none;fillColor=none;align=center;verticalAlign=middle;whiteSpace=wrap;rounded=0;fontSize=15;" vertex="1" parent="1">
                    <mxGeometry x="390" y="190" width="300" height="40" as="geometry"/>
                </mxCell>
                <mxCell id="12" value="" style="rounded=0;whiteSpace=wrap;html=1;fontSize=15;fillColor=#f5f5f5;strokeColor=#666666;fontColor=#333333;" vertex="1" parent="1">
                    <mxGeometry x="405" y="250" width="250" height="50" as="geometry"/>
                </mxCell>
                <mxCell id="13" value="Try another word!!" style="text;html=1;strokeColor=none;fillColor=none;align=center;verticalAlign=middle;whiteSpace=wrap;rounded=0;fontSize=15;labelBackgroundColor=#ffffff;fontColor=#000000;" vertex="1" parent="1">
                    <mxGeometry x="415" y="265" width="230" height="20" as="geometry"/>
                </mxCell>
                <mxCell id="14" value="The correct translation for -word- is -answer- and you chose -guess-" style="text;html=1;strokeColor=none;fillColor=none;align=center;verticalAlign=middle;whiteSpace=wrap;rounded=0;fontSize=15;" vertex="1" parent="1">
                    <mxGeometry x="80" y="130" width="200" height="40" as="geometry"/>
                </mxCell>
            </root>
        </mxGraphModel>
    </diagram>
</mxfile>